<svg xmlns="http://www.w3.org/2000/svg" xmlns:xlink="http://www.w3.org/1999/xlink" version="1.1" width="119px" height="121px" viewBox="-0.5 -0.5 119 121"><defs><linearGradient x1="0%" y1="0%" x2="0%" y2="100%" id="mx-gradient-ccccff-1-797a99-1-s-0"><stop offset="0%" style="stop-color:#CCCCFF"/><stop offset="100%" style="stop-color:#797A99"/></linearGradient><linearGradient x1="0%" y1="0%" x2="0%" y2="100%" id="mx-gradient-61c200-1-008a00-1-s-0"><stop offset="0%" style="stop-color:#61C200"/><stop offset="100%" style="stop-color:#008A00"/></linearGradient></defs><g><path d="M 0.7 0.7 L 63.44 0.7 L 79.44 16.7 L 79.44 118.81 L 16.7 118.81 L 0.7 102.81 L 0.7 0.7 Z" fill="url(#mx-gradient-ccccff-1-797a99-1-s-0)" stroke="none" transform="rotate(-1,40.07,59.75)" pointer-events="all"/><path d="M 0.7 0.7 L 63.44 0.7 L 79.44 16.7 L 16.7 16.7 Z" fill-opacity="0.05" fill="#000000" stroke="none" transform="rotate(-1,40.07,59.75)" pointer-events="all"/><path d="M 0.7 0.7 L 16.7 16.7 L 16.7 118.81 L 0.7 102.81 Z" fill-opacity="0.1" fill="#000000" stroke="none" transform="rotate(-1,40.07,59.75)" pointer-events="all"/><path d="M 16.7 118.81 L 16.7 16.7 L 0.7 0.7 M 16.7 16.7 L 79.44 16.7" fill="none" stroke="none" transform="rotate(-1,40.07,59.75)" pointer-events="all"/><path d="M 27.38 84.86 C 28.34 82.5 30.75 80.52 34.01 79.42 C 37.26 78.33 41.06 78.22 44.45 79.12 C 49.38 80.73 53.19 83.56 55.11 87.01 C 63.91 70.19 77.29 54.61 94.56 41.08 C 99.47 38.09 106.32 37 112.69 38.21 C 114.32 38.39 115.7 39.11 116.35 40.13 C 117 41.15 116.83 42.32 115.89 43.24 C 92.41 61.08 74.95 82.14 64.71 104.95 C 58.67 107 51.55 107 45.51 104.95 C 40.95 98.14 34.83 91.84 27.38 86.3 C 27 85.85 27 85.3 27.38 84.86 Z" fill="url(#mx-gradient-61c200-1-008a00-1-s-0)" stroke="none" pointer-events="all"/></g></svg>